<?xml version="1.0" encoding="UTF-8" standalone="no" ?>
<!DOCTYPE svg PUBLIC "-//W3C//DTD SVG 1.1//EN" "http://www.w3.org/Graphics/SVG/1.1/DTD/svg11.dtd">
<svg xmlns="http://www.w3.org/2000/svg" xmlns:xlink="http://www.w3.org/1999/xlink" version="1.1" width="400" height="400" viewBox="0 0 400 400" xml:space="preserve">
<desc>Created with Fabric.js 3.6.2</desc>
<defs>
</defs>
<g transform="matrix(0.99 0 0 0.99 200 200)" id="Layer_1"  >
<path style="stroke: none; stroke-width: 1; stroke-dasharray: none; stroke-linecap: butt; stroke-dashoffset: 0; stroke-linejoin: miter; stroke-miterlimit: 4; fill: rgb(0,0,0); fill-rule: nonzero; opacity: 1;"  transform=" translate(-254.95, -256.05)" d="M 321.2 154.8 H 188.7 c -19.3 0 -35 15.7 -35 35 v 132.5 c 0 19.3 15.7 35 35 35 h 132.5 c 19.3 0 35 -15.7 35 -35 V 189.8 C 356.2 170.5 340.5 154.8 321.2 154.8 z M 310.2 228.4 c 0 0 3.3 34.9 -19.5 59.6 c -42.3 45.7 -105.2 13.5 -105.2 13.5 c 27 0.9 41.9 -10.7 41.9 -10.7 c -18.2 -2.3 -25.6 -20.9 -25.6 -20.9 c 7.4 1.9 12.1 0 12.1 0 c -20.5 -7 -22.3 -28.9 -22.3 -28.9 c 5.6 5.1 13.5 3.7 13.5 3.7 c -19.5 -13 -12.1 -41 -12.1 -41 s 26.5 31.7 61.4 31.2 c 0 0 -3.3 -21.3 14.4 -31.2 c 17.2 -9.5 30.5 -1 35 7.1 c 4.7 -1 13 -4.3 18.3 -8.9 c 0.1 8.7 -10 15.7 -10 15.7 c 9.3 -1.4 14.4 -4.7 14.4 -4.7 C 322.5 222.6 310.2 228.4 310.2 228.4 z" stroke-linecap="round" />
</g>
</svg>